<svg width="24" height="24" viewBox="0 0 24 24" fill="none" xmlns="http://www.w3.org/2000/svg">
  <!-- Book outline (white) -->
  <path d="M19.562 7C19.79 5.7 18.786 4.5 17.462 4.5H6.538C5.213 4.5 4.209 5.7 4.438 7M17.5 4.5C17.528 4.24 17.543 4.11 17.543 4C17.545 3 16.774 2.1 15.756 2C15.65 2 15.52 2 15.259 2H8.741C8.48 2 8.35 2 8.244 2C7.226 2.1 6.455 3 6.457 4C6.457 4.11 6.471 4.24 6.5 4.5" 
        stroke="#ffffff" stroke-width="1.5"/>
  
  <!-- Shelf lines (white) -->
  <path d="M15 18H9" stroke="#ffffff" stroke-width="1.5" stroke-linecap="round"/>
  
  <!-- Main book shape (white) -->
  <path d="M2.384 13.793C1.937 10.63 1.714 9.05 2.662 8.024C3.61 7 5.298 7 8.672 7H15.328C18.702 7 20.39 7 21.338 8.024C22.286 9.05 22.063 10.63 21.616 13.793L21.194 16.793C20.844 19.274 20.669 20.514 19.772 21.257C18.875 22 17.551 22 14.905 22H9.095C6.449 22 5.126 22 4.228 21.257C3.331 20.514 3.156 19.274 2.806 16.793L2.384 13.793Z" 
        stroke="#ffffff" stroke-width="1.5"/>
</svg>